<?xml version="1.0" encoding="UTF-8"?>
<svg version="1.1" xmlns="http://www.w3.org/2000/svg" width="400" height="400">
<path d="M0 0 C9.27734375 -0.09765625 9.27734375 -0.09765625 12 0 C15.07318149 3.07318149 13 8.65386506 13 13 C20.92 13 28.84 13 37 13 C37 9.04 37 5.08 37 1 C38.7974182 -0.7974182 41.24137962 -0.12630946 43.63444519 -0.13552856 C44.84696709 -0.13249222 44.84696709 -0.13249222 46.08398438 -0.12939453 C46.93108475 -0.13114685 47.77818512 -0.13289917 48.6509552 -0.13470459 C51.46524066 -0.13912409 54.27946384 -0.13618477 57.09375 -0.1328125 C59.04048678 -0.13348551 60.98722347 -0.13445551 62.93395996 -0.13571167 C67.01962075 -0.13718878 71.10525971 -0.13503368 75.19091797 -0.13037109 C80.44046516 -0.1246738 85.68996122 -0.12795274 90.93950653 -0.13394356 C94.96108387 -0.13754883 98.98264899 -0.13641074 103.00422668 -0.13381577 C104.94041449 -0.1331464 106.87660339 -0.13397525 108.81278992 -0.13629532 C111.51389524 -0.13882129 114.21491659 -0.13498205 116.91601562 -0.12939453 C117.72436356 -0.13141876 118.53271149 -0.13344299 119.36555481 -0.13552856 C124.88573752 -0.11426248 124.88573752 -0.11426248 126 1 C126 4.96 126 8.92 126 13 C133.92 13 141.84 13 150 13 C150 17.29 150 21.58 150 26 C154.29 26 158.58 26 163 26 C163 29.96 163 33.92 163 38 C171.25 38 179.5 38 188 38 C188 41.96 188 45.92 188 50 C196.25 50 204.5 50 213 50 C213 58.91 213 67.82 213 77 C208.71 77 204.42 77 200 77 C200 84.59 200 92.18 200 100 C204.29 100 208.58 100 213 100 C213.02682299 104.31254083 213.04675244 108.62491707 213.0625 112.9375 C213.07087891 114.16919922 213.07925781 115.40089844 213.08789062 116.66992188 C213.09272461 118.4246582 213.09272461 118.4246582 213.09765625 120.21484375 C213.10551147 121.84087524 213.10551147 121.84087524 213.11352539 123.49975586 C213 126 213 126 212 127 C208.04 127 204.08 127 200 127 C200 139.21 200 151.42 200 164 C196.04 164 192.08 164 188 164 C188 172.25 188 180.5 188 189 C184.04 189 180.08 189 176 189 C176.01160156 190.72089844 176.02320313 192.44179687 176.03515625 194.21484375 C176.04453234 196.45572809 176.05363273 198.69661359 176.0625 200.9375 C176.07087891 202.07380859 176.07925781 203.21011719 176.08789062 204.38085938 C176.09111328 205.46044922 176.09433594 206.54003906 176.09765625 207.65234375 C176.10289307 208.65257568 176.10812988 209.65280762 176.11352539 210.68334961 C176 213 176 213 175 214 C170.99779347 214.14355117 167.00558317 214.04216403 163 214 C163 217.96 163 221.92 163 226 C158.71 226 154.42 226 150 226 C150 230.29 150 234.58 150 239 C146.04 239 142.08 239 138 239 C138 243.29 138 247.58 138 252 C134.04 252 130.08 252 126 252 C126 255.63 126 259.26 126 263 C129.96 263 133.92 263 138 263 C138 267.29 138 271.58 138 276 C141.96 276 145.92 276 150 276 C150 279.96 150 283.92 150 288 C154.29 288 158.58 288 163 288 C163 292.29 163 296.58 163 301 C160.31099641 302.3445018 158.23801792 302.12900877 155.22590637 302.13371277 C153.99639252 302.13797775 152.76687866 302.14224274 151.50010681 302.14663696 C150.13003537 302.14628741 148.75996395 302.14582586 147.38989258 302.14526367 C145.95269686 302.1482546 144.51550195 302.15165697 143.07830811 302.15544128 C139.16691997 302.16429513 135.25555369 302.16662006 131.3441565 302.16725707 C128.07899229 302.16820569 124.81383319 302.17188368 121.54867095 302.17542917 C113.84193361 302.18358 106.13520795 302.18601294 98.4284668 302.18530273 C90.48283113 302.18470268 82.53726352 302.1952386 74.59164506 302.2110464 C67.76946786 302.22413471 60.94731286 302.22948604 54.1251232 302.22884732 C50.05098468 302.22859259 45.97690654 302.23142973 41.90278053 302.24202538 C38.0672089 302.25172734 34.23175506 302.25177118 30.3961792 302.24450874 C28.99135351 302.24346531 27.5865204 302.24581146 26.18170738 302.2518692 C13.10519954 302.30458526 13.10519954 302.30458526 7 300 C7.49360009 295.72213252 8.04783565 292.90432869 10 289 C7.03 289 4.06 289 1 289 C1 292.96 1 296.92 1 301 C-3.62 301 -8.24 301 -13 301 C-13 296.71 -13 292.42 -13 288 C-8.71 288 -4.42 288 0 288 C0 284.04 0 280.08 0 276 C3.96 276 7.92 276 12 276 C12 271.71 12 267.42 12 263 C15.96 263 19.92 263 24 263 C24 259.37 24 255.74 24 252 C21.3084375 252.0309375 21.3084375 252.0309375 18.5625 252.0625 C16.70833878 252.0838122 14.85287502 252.07226502 13 252 C12 251 12 251 11.90234375 248.27734375 C11.93489583 245.18489583 11.96744792 242.09244792 12 239 C8.04 239 4.08 239 0 239 C-0.495 233.06 -0.495 233.06 -1 227 C-9.25 226.67 -17.5 226.34 -26 226 C-26 222.04 -26 218.08 -26 214 C-29.96 214 -33.92 214 -38 214 C-38 210.04 -38 206.08 -38 202 C-41.96 202 -45.92 202 -50 202 C-50 197.71 -50 193.42 -50 189 C-54.29 189 -58.58 189 -63 189 C-63 176.46 -63 163.92 -63 151 C-67.29 151 -71.58 151 -76 151 C-76.21875 132.77083333 -76.21875 132.77083333 -75 126 C-74.505 125.505 -74.505 125.505 -74 125 C-70.37 125 -66.74 125 -63 125 C-63 117.08 -63 109.16 -63 101 C-66.96 101 -70.92 101 -75 101 C-76 100 -76 100 -76.1328125 97.53125 C-76.13023438 96.5309375 -76.12765625 95.530625 -76.125 94.5 C-76.12757812 93.4996875 -76.13015625 92.499375 -76.1328125 91.46875 C-76 89 -76 89 -75 88 C-70.99779347 87.85644883 -67.00558317 87.95783597 -63 88 C-63 84.04 -63 80.08 -63 76 C-58.71 76 -54.42 76 -50 76 C-50 67.42 -50 58.84 -50 50 C-46.04 50 -42.08 50 -38 50 C-38 42.08 -38 34.16 -38 26 C-34.04 26 -30.08 26 -26 26 C-26.020625 24.040625 -26.04125 22.08125 -26.0625 20.0625 C-26.08377188 18.04167124 -26.07244053 16.01964199 -26 14 C-25 13 -25 13 -22.59155273 12.88647461 C-21.02836304 12.89432983 -21.02836304 12.89432983 -19.43359375 12.90234375 C-18.30888672 12.90556641 -17.18417969 12.90878906 -16.02539062 12.91210938 C-14.84138672 12.92048828 -13.65738281 12.92886719 -12.4375 12.9375 C-11.24962891 12.94201172 -10.06175781 12.94652344 -8.83789062 12.95117188 C-5.89190588 12.96300314 -2.94594684 12.98093924 0 13 C0 8.71 0 4.42 0 0 Z M25 264 C25 267.96 25 271.92 25 276 C21.04 276 17.08 276 13 276 C13 280.29 13 284.58 13 289 C14.62808594 288.77183594 16.25617188 288.54367187 17.93359375 288.30859375 C20.10148678 288.01766438 22.2694599 287.7273314 24.4375 287.4375 C25.50677734 287.28603516 26.57605469 287.13457031 27.67773438 286.97851562 C34.90730667 286.02783792 41.27475923 285.94426879 48.39306641 287.53466797 C51.2298129 288.04102111 53.85766448 288.11306062 56.73828125 288.09765625 C58.33833008 288.09282227 58.33833008 288.09282227 59.97070312 288.08789062 C61.07349609 288.07951172 62.17628906 288.07113281 63.3125 288.0625 C64.99569336 288.05573242 64.99569336 288.05573242 66.71289062 288.04882812 C69.47528336 288.03707326 72.23764856 288.01913869 75 288 C75 284.04 75 280.08 75 276 C70.71 276 66.42 276 62 276 C62 272.04 62 268.08 62 264 C49.79 264 37.58 264 25 264 Z M101 264 C100.67 267.63 100.34 271.26 100 275 C94.06 275.495 94.06 275.495 88 276 C88 279.96 88 283.92 88 288 C104.17 288 120.34 288 137 288 C137 284.04 137 280.08 137 276 C133.04 276 129.08 276 125 276 C125 272.04 125 268.08 125 264 C117.08 264 109.16 264 101 264 Z M144 289 C144 289.33 144 289.66 144 290 C145.65 290 147.3 290 149 290 C149 289.67 149 289.34 149 289 C147.35 289 145.7 289 144 289 Z " fill="#252525" transform="translate(125,49)"/>
<path d="M0 0 C3.96 0 7.92 0 12 0 C12 3.96 12 7.92 12 12 C16.29 12 20.58 12 25 12 C25 24.54 25 37.08 25 50 C30.94 49.505 30.94 49.505 37 49 C37.33 45.04 37.66 41.08 38 37 C45.92 37 53.84 37 62 37 C62 32.71 62 28.42 62 24 C66.29 24 70.58 24 75 24 C75 16.08 75 8.16 75 0 C78.96 0 82.92 0 87 0 C87 3.96 87 7.92 87 12 C91.29 12 95.58 12 100 12 C100 15.96 100 19.92 100 24 C104.29 24 108.58 24 113 24 C113 48.75 113 73.5 113 99 C116.96 99 120.92 99 125 99 C125 99.33 125 99.66 125 100 C121.04 100 117.08 100 113 100 C113 103.96 113 107.92 113 112 C108.71 112 104.42 112 100 112 C100 116.29 100 120.58 100 125 C96.04 125 92.08 125 88 125 C88 129.29 88 133.58 88 138 C84.04 138 80.08 138 76 138 C76 141.63 76 145.26 76 149 C79.96 149 83.92 149 88 149 C88 153.29 88 157.58 88 162 C91.96 162 95.92 162 100 162 C100 165.96 100 169.92 100 174 C104.29 174 108.58 174 113 174 C113 178.29 113 182.58 113 187 C110.31099641 188.3445018 108.23801792 188.12900877 105.22590637 188.13371277 C103.99639252 188.13797775 102.76687866 188.14224274 101.50010681 188.14663696 C100.13003537 188.14628741 98.75996395 188.14582586 97.38989258 188.14526367 C95.95269686 188.1482546 94.51550195 188.15165697 93.07830811 188.15544128 C89.16691997 188.16429513 85.25555369 188.16662006 81.3441565 188.16725707 C78.07899229 188.16820569 74.81383319 188.17188368 71.54867095 188.17542917 C63.84193361 188.18358 56.13520795 188.18601294 48.4284668 188.18530273 C40.48283113 188.18470268 32.53726352 188.1952386 24.59164506 188.2110464 C17.76946786 188.22413471 10.94731286 188.22948604 4.1251232 188.22884732 C0.05098468 188.22859259 -4.02309346 188.23142973 -8.09721947 188.24202538 C-11.9327911 188.25172734 -15.76824494 188.25177118 -19.6038208 188.24450874 C-21.00864649 188.24346531 -22.4134796 188.24581146 -23.81829262 188.2518692 C-36.89480046 188.30458526 -36.89480046 188.30458526 -43 186 C-42.50639991 181.72213252 -41.95216435 178.90432869 -40 175 C-42.97 175 -45.94 175 -49 175 C-49 178.96 -49 182.92 -49 187 C-53.62 187 -58.24 187 -63 187 C-63 182.71 -63 178.42 -63 174 C-58.71 174 -54.42 174 -50 174 C-50 170.04 -50 166.08 -50 162 C-46.04 162 -42.08 162 -38 162 C-38 157.71 -38 153.42 -38 149 C-34.04 149 -30.08 149 -26 149 C-26 145.37 -26 141.74 -26 138 C-28.6915625 138.0309375 -28.6915625 138.0309375 -31.4375 138.0625 C-33.29166122 138.0838122 -35.14712498 138.07226502 -37 138 C-38 137 -38 137 -38.09765625 134.27734375 C-38.06510417 131.18489583 -38.03255208 128.09244792 -38 125 C-41.96 125 -45.92 125 -50 125 C-50 124.67 -50 124.34 -50 124 C-46.04 124 -42.08 124 -38 124 C-38 120.04 -38 116.08 -38 112 C-41.96 112 -45.92 112 -50 112 C-50 103.75 -50 95.5 -50 87 C-53.96 87 -57.92 87 -62 87 C-62 82.71 -62 78.42 -62 74 C-66.29 74 -70.58 74 -75 74 C-75 66.08 -75 58.16 -75 50 C-71.04 50 -67.08 50 -63 50 C-63 53.96 -63 57.92 -63 62 C-58.71 62 -54.42 62 -50 62 C-50 65.96 -50 69.92 -50 74 C-46.04 74 -42.08 74 -38 74 C-38 61.79 -38 49.58 -38 37 C-33.71 37 -29.42 37 -25 37 C-25 33.04 -25 29.08 -25 25 C-20.71 25 -16.42 25 -12 25 C-12 20.71 -12 16.42 -12 12 C-8.04 12 -4.08 12 0 12 C0 8.04 0 4.08 0 0 Z M-25 150 C-25 153.96 -25 157.92 -25 162 C-28.96 162 -32.92 162 -37 162 C-37 166.29 -37 170.58 -37 175 C-35.37191406 174.77183594 -33.74382812 174.54367187 -32.06640625 174.30859375 C-29.89851322 174.01766438 -27.7305401 173.7273314 -25.5625 173.4375 C-24.49322266 173.28603516 -23.42394531 173.13457031 -22.32226562 172.97851562 C-15.09269333 172.02783792 -8.72524077 171.94426879 -1.60693359 173.53466797 C1.2298129 174.04102111 3.85766448 174.11306062 6.73828125 174.09765625 C8.33833008 174.09282227 8.33833008 174.09282227 9.97070312 174.08789062 C11.07349609 174.07951172 12.17628906 174.07113281 13.3125 174.0625 C14.99569336 174.05573242 14.99569336 174.05573242 16.71289062 174.04882812 C19.47528336 174.03707326 22.23764856 174.01913869 25 174 C25 170.04 25 166.08 25 162 C20.71 162 16.42 162 12 162 C12 158.04 12 154.08 12 150 C-0.21 150 -12.42 150 -25 150 Z M51 150 C50.67 153.63 50.34 157.26 50 161 C44.06 161.495 44.06 161.495 38 162 C38 165.96 38 169.92 38 174 C54.17 174 70.34 174 87 174 C87 170.04 87 166.08 87 162 C83.04 162 79.08 162 75 162 C75 158.04 75 154.08 75 150 C67.08 150 59.16 150 51 150 Z M94 175 C94 175.33 94 175.66 94 176 C95.65 176 97.3 176 99 176 C99 175.67 99 175.34 99 175 C97.35 175 95.7 175 94 175 Z " fill="#F2CDAA" transform="translate(175,163)"/>
<path d="M0 0 C4.29 0 8.58 0 13 0 C13 4.29 13 8.58 13 13 C9.04 13 5.08 13 1 13 C1 17.29 1 21.58 1 26 C-2.96 26 -6.92 26 -11 26 C-11 29.63 -11 33.26 -11 37 C-7.04 37 -3.08 37 1 37 C1 41.29 1 45.58 1 50 C4.96 50 8.92 50 13 50 C13 53.96 13 57.92 13 62 C17.29 62 21.58 62 26 62 C26 66.29 26 70.58 26 75 C23.31099641 76.3445018 21.23801792 76.12900877 18.22590637 76.13371277 C16.99639252 76.13797775 15.76687866 76.14224274 14.50010681 76.14663696 C13.13003537 76.14628741 11.75996395 76.14582586 10.38989258 76.14526367 C8.95269686 76.1482546 7.51550195 76.15165697 6.07830811 76.15544128 C2.16691997 76.16429513 -1.74444631 76.16662006 -5.6558435 76.16725707 C-8.92100771 76.16820569 -12.18616681 76.17188368 -15.45132905 76.17542917 C-23.15806639 76.18358 -30.86479205 76.18601294 -38.5715332 76.18530273 C-46.51716887 76.18470268 -54.46273648 76.1952386 -62.40835494 76.2110464 C-69.23053214 76.22413471 -76.05268714 76.22948604 -82.8748768 76.22884732 C-86.94901532 76.22859259 -91.02309346 76.23142973 -95.09721947 76.24202538 C-98.9327911 76.25172734 -102.76824494 76.25177118 -106.6038208 76.24450874 C-108.00864649 76.24346531 -109.4134796 76.24581146 -110.81829262 76.2518692 C-123.89480046 76.30458526 -123.89480046 76.30458526 -130 74 C-129.50639991 69.72213252 -128.95216435 66.90432869 -127 63 C-129.97 63 -132.94 63 -136 63 C-136 66.96 -136 70.92 -136 75 C-140.62 75 -145.24 75 -150 75 C-150 70.71 -150 66.42 -150 62 C-145.71 62 -141.42 62 -137 62 C-137 58.04 -137 54.08 -137 50 C-133.04 50 -129.08 50 -125 50 C-125 45.71 -125 41.42 -125 37 C-121.04 37 -117.08 37 -113 37 C-113 33.37 -113 29.74 -113 26 C-116.63 26 -120.26 26 -124 26 C-124 21.71 -124 17.42 -124 13 C-116.08 13 -108.16 13 -100 13 C-100 16.96 -100 20.92 -100 25 C-70.96 25 -41.92 25 -12 25 C-12 20.71 -12 16.42 -12 12 C-8.04 12 -4.08 12 0 12 C0 8.04 0 4.08 0 0 Z M-112 38 C-112 41.96 -112 45.92 -112 50 C-115.96 50 -119.92 50 -124 50 C-124 54.29 -124 58.58 -124 63 C-122.37191406 62.77183594 -120.74382812 62.54367187 -119.06640625 62.30859375 C-116.89851322 62.01766438 -114.7305401 61.7273314 -112.5625 61.4375 C-111.49322266 61.28603516 -110.42394531 61.13457031 -109.32226562 60.97851562 C-102.09269333 60.02783792 -95.72524077 59.94426879 -88.60693359 61.53466797 C-85.7701871 62.04102111 -83.14233552 62.11306062 -80.26171875 62.09765625 C-78.66166992 62.09282227 -78.66166992 62.09282227 -77.02929688 62.08789062 C-75.92650391 62.07951172 -74.82371094 62.07113281 -73.6875 62.0625 C-72.00430664 62.05573242 -72.00430664 62.05573242 -70.28710938 62.04882812 C-67.52471664 62.03707326 -64.76235144 62.01913869 -62 62 C-62 58.04 -62 54.08 -62 50 C-66.29 50 -70.58 50 -75 50 C-75 46.04 -75 42.08 -75 38 C-87.21 38 -99.42 38 -112 38 Z M-36 38 C-36.33 41.63 -36.66 45.26 -37 49 C-42.94 49.495 -42.94 49.495 -49 50 C-49 53.96 -49 57.92 -49 62 C-32.83 62 -16.66 62 0 62 C0 58.04 0 54.08 0 50 C-3.96 50 -7.92 50 -12 50 C-12 46.04 -12 42.08 -12 38 C-19.92 38 -27.84 38 -36 38 Z M7 63 C7 63.33 7 63.66 7 64 C8.65 64 10.3 64 12 64 C12 63.67 12 63.34 12 63 C10.35 63 8.7 63 7 63 Z " fill="#040303" transform="translate(262,275)"/>
<path d="M0 0 C3.96 0 7.92 0 12 0 C12.33 8.25 12.66 16.5 13 25 C9.04 25.495 9.04 25.495 5 26 C4.34 26.66 3.68 27.32 3 28 C2.01 28 1.02 28 0 28 C0.16298584 28.57524414 0.32597168 29.15048828 0.49389648 29.74316406 C0.99037528 31.95708107 1.11479744 33.84673797 1.09765625 36.109375 C1.09443359 36.86347656 1.09121094 37.61757812 1.08789062 38.39453125 C1.07951172 39.17183594 1.07113281 39.94914062 1.0625 40.75 C1.05798828 41.54277344 1.05347656 42.33554688 1.04882812 43.15234375 C1.03708565 45.10159508 1.01915146 47.05080738 1 49 C4.63 49.33 8.26 49.66 12 50 C12.02505615 50.91813477 12.0501123 51.83626953 12.07592773 52.78222656 C12.1712027 56.19657025 12.27042778 59.61075203 12.37231445 63.02490234 C12.41556035 64.5010939 12.45724256 65.97733215 12.49731445 67.45361328 C12.55526846 69.57859348 12.61888946 71.70334093 12.68359375 73.828125 C12.72025146 75.1059082 12.75690918 76.38369141 12.79467773 77.70019531 C12.95857258 80.33420569 13.28065629 82.48833116 14 85 C14 85.66 14 86.32 14 87 C18.455 86.505 18.455 86.505 23 86 C23.33 78.08 23.66 70.16 24 62 C26.97 62 29.94 62 33 62 C33 60.35 33 58.7 33 57 C34.32 57.33 35.64 57.66 37 58 C37 55.36 37 52.72 37 50 C41.29 50 45.58 50 50 50 C51.125 58.625 51.125 58.625 50 62 C45.71 62 41.42 62 37 62 C37 70.25 37 78.5 37 87 C41.29 87 45.58 87 50 87 C50 91.29 50 95.58 50 100 C53.96 100 57.92 100 62 100 C62 108.25 62 116.5 62 125 C65.96 125 69.92 125 74 125 C74 128.96 74 132.92 74 137 C70.04 137 66.08 137 62 137 C61.67 133.37 61.34 129.74 61 126 C52.75 125.67 44.5 125.34 36 125 C36 121.04 36 117.08 36 113 C32.04 113 28.08 113 24 113 C24 109.04 24 105.08 24 101 C20.04 101 16.08 101 12 101 C12 96.71 12 92.42 12 88 C7.71 88 3.42 88 -1 88 C-1 75.46 -1 62.92 -1 50 C-5.29 50 -9.58 50 -14 50 C-14.21875 31.77083333 -14.21875 31.77083333 -13 25 C-12.67 24.67 -12.34 24.34 -12 24 C-8.04 24.33 -4.08 24.66 0 25 C0 16.75 0 8.5 0 0 Z " fill="#030302" transform="translate(63,150)"/>
<path d="M0 0 C8.25 0 16.5 0 25 0 C25 4.29 25 8.58 25 13 C29.29 13 33.58 13 38 13 C38 16.96 38 20.92 38 25 C41.96 25 45.92 25 50 25 C50.33 37.54 50.66 50.08 51 63 C54.63 63 58.26 63 62 63 C62 70.92 62 78.84 62 87 C58.04 87 54.08 87 50 87 C50 95.25 50 103.5 50 112 C46.04 112 42.08 112 38 112 C38 87.25 38 62.5 38 37 C33.71 37 29.42 37 25 37 C25 33.04 25 29.08 25 25 C21.04 25 17.08 25 13 25 C13 20.71 13 16.42 13 12 C8.71 12 4.42 12 0 12 C0 8.04 0 4.08 0 0 Z " fill="#030302" transform="translate(250,150)"/>
<path d="M0 0 C8.25 0 16.5 0 25 0 C25 3.96 25 7.92 25 12 C26.959375 11.979375 28.91875 11.95875 30.9375 11.9375 C32.95832876 11.91622812 34.98035801 11.92755947 37 12 C38.68300669 13.68300669 38.22809077 15.82008727 38.31640625 18.12890625 C38.35830078 19.16337891 38.40019531 20.19785156 38.44335938 21.26367188 C38.48267578 22.35228516 38.52199219 23.44089844 38.5625 24.5625 C38.60568359 25.65498047 38.64886719 26.74746094 38.69335938 27.87304688 C38.79981958 30.58186768 38.90044807 33.29091651 39 36 C42.63 36.33 46.26 36.66 50 37 C50 33.04 50 29.08 50 25 C54.29 25 58.58 25 63 25 C63 21.04 63 17.08 63 13 C66.96 13 70.92 13 75 13 C75 20.92 75 28.84 75 37 C70.71 37 66.42 37 62 37 C62 41.29 62 45.58 62 50 C54.08 50 46.16 50 38 50 C38 53.96 38 57.92 38 62 C37.67 62.33 37.34 62.66 37 63 C33.04 63 29.08 63 25 63 C25 50.46 25 37.92 25 25 C21.04 25 17.08 25 13 25 C13 20.71 13 16.42 13 12 C8.71 12 4.42 12 0 12 C0 8.04 0 4.08 0 0 Z " fill="#040302" transform="translate(175,150)"/>
<path d="M0 0 C2.11288069 0.26660293 4.2264672 0.52717516 6.34008789 0.7878418 C9.56082374 1.18587847 12.78037275 1.59310232 16 2 C16 6.29 16 10.58 16 15 C28.54 15 41.08 15 54 15 C54 10.71 54 6.42 54 2 C58.88866786 1.02226643 63.17916474 0.80869332 68.125 0.8125 C69.43331787 0.8115332 69.43331787 0.8115332 70.76806641 0.81054688 C79.2155707 0.87736158 87.52307919 1.71605592 95.89208984 2.81640625 C98.58522362 3.05097153 101.29667049 3 104 3 C104 6.96 104 10.92 104 15 C107.63 15 111.26 15 115 15 C115 15.33 115 15.66 115 16 C95.95448636 16.04674462 76.90898439 16.08200092 57.86342525 16.10362434 C49.02001463 16.11393185 40.17663968 16.12798214 31.33325195 16.15087891 C23.62432235 16.17082887 15.91541858 16.18372026 8.20646387 16.18817699 C4.1255804 16.19078164 0.04477082 16.19689279 -4.03608894 16.21146011 C-7.87983141 16.2250694 -11.72346976 16.22921589 -15.56723404 16.22621536 C-16.97528716 16.22676403 -18.38334388 16.23072153 -19.79137611 16.23841095 C-32.90059706 16.30646961 -32.90059706 16.30646961 -39 14 C-38.08877537 6.10271987 -38.08877537 6.10271987 -36 3 C-34.0480957 2.28637695 -34.0480957 2.28637695 -31.67578125 1.98828125 C-30.81146484 1.87033203 -29.94714844 1.75238281 -29.05664062 1.63085938 C-27.69829102 1.47327148 -27.69829102 1.47327148 -26.3125 1.3125 C-24.9831543 1.13750977 -24.9831543 1.13750977 -23.62695312 0.95898438 C-21.8873948 0.73107777 -20.14673593 0.51139867 -18.4050293 0.30053711 C-16.29884676 0.03734447 -14.19929805 -0.27786383 -12.1015625 -0.6015625 C-7.95059099 -1.13481073 -4.11142516 -0.56944947 0 0 Z " fill="#FAFBFA" transform="translate(171,335)"/>
<path d="M0 0 C8.25 0 16.5 0 25 0 C25 7.92 25 15.84 25 24 C29.29 24 33.58 24 38 24 C38.02682299 28.31254083 38.04675244 32.62491707 38.0625 36.9375 C38.07087891 38.16919922 38.07925781 39.40089844 38.08789062 40.66992188 C38.09111328 41.83974609 38.09433594 43.00957031 38.09765625 44.21484375 C38.10289307 45.29886475 38.10812988 46.38288574 38.11352539 47.49975586 C38 50 38 50 37 51 C33.04 51 29.08 51 25 51 C25 62.88 25 74.76 25 87 C21.04 87 17.08 87 13 87 C12 86 12 86 11.87974548 84.05747986 C11.8830764 82.78173851 11.8830764 82.78173851 11.88647461 81.48022461 C11.88655014 80.51930405 11.88662567 79.55838348 11.88670349 78.56834412 C11.89186478 77.523564 11.89702606 76.47878387 11.90234375 75.40234375 C11.9037587 74.33834854 11.90517365 73.27435333 11.90663147 72.17811584 C11.91224936 68.76454917 11.92480489 65.351047 11.9375 61.9375 C11.94251269 59.62955824 11.947076 57.32161545 11.95117188 55.01367188 C11.96222461 49.34242289 11.97950123 43.6712224 12 38 C16.29 38 20.58 38 25 38 C25 33.71 25 29.42 25 25 C21.04 25 17.08 25 13 25 C13 20.71 13 16.42 13 12 C8.71 12 4.42 12 0 12 C0 8.04 0 4.08 0 0 Z " fill="#0C0C0C" transform="translate(300,125)"/>
<path d="M0 0 C7.92 0 15.84 0 24 0 C24 8.25 24 16.5 24 25 C20.04 25 16.08 25 12 25 C12 28.96 12 32.92 12 37 C7.71 37 3.42 37 -1 37 C-1 40.96 -1 44.92 -1 49 C-5.29 49 -9.58 49 -14 49 C-14 53.29 -14 57.58 -14 62 C-17.96 62 -21.92 62 -26 62 C-26 53.42 -26 44.84 -26 36 C-22.04 36 -18.08 36 -14 36 C-14 28.08 -14 20.16 -14 12 C-9.71 12 -5.42 12 -1 12 C-1 15.96 -1 19.92 -1 24 C2.96 24 6.92 24 11 24 C11 20.04 11 16.08 11 12 C7.37 12 3.74 12 0 12 C0 8.04 0 4.08 0 0 Z " fill="#090909" transform="translate(101,63)"/>
<path d="M0 0 C2.53541298 0.09086451 5.03554784 0.2370945 7.5625 0.4375 C8.62887695 0.51581055 8.62887695 0.51581055 9.71679688 0.59570312 C11.47821999 0.72574107 13.23916173 0.86226897 15 1 C15 5.29 15 9.58 15 14 C18.96 14 22.92 14 27 14 C27 22.25 27 30.5 27 39 C30.96 39 34.92 39 39 39 C39 42.96 39 46.92 39 51 C35.04 51 31.08 51 27 51 C26.67 47.37 26.34 43.74 26 40 C17.75 39.67 9.5 39.34 1 39 C1 35.04 1 31.08 1 27 C-2.96 27 -6.92 27 -11 27 C-11 23.04 -11 19.08 -11 15 C-14.96 15 -18.92 15 -23 15 C-23 14.34 -23 13.68 -23 13 C-18.71 13 -14.42 13 -10 13 C-10 9.37 -10 5.74 -10 2 C-8.535625 1.855625 -7.07125 1.71125 -5.5625 1.5625 C-2.48153302 1.46504174 -2.48153302 1.46504174 0 0 Z " fill="#181818" transform="translate(98,236)"/>
<path d="M0 0 C8.25 0 16.5 0 25 0 C25 3.96 25 7.92 25 12 C21.04 12 17.08 12 13 12 C13 16.29 13 20.58 13 25 C8.71 25 4.42 25 0 25 C0 37.21 0 49.42 0 62 C-3.96 62 -7.92 62 -12 62 C-12 58.04 -12 54.08 -12 50 C-15.96 50 -19.92 50 -24 50 C-24.09765625 40.72265625 -24.09765625 40.72265625 -24 38 C-21.36476862 35.36476862 -16.70828466 36.37082847 -13 36 C-12.67 28.08 -12.34 20.16 -12 12 C-8.04 12 -4.08 12 0 12 C0 8.04 0 4.08 0 0 Z " fill="#030302" transform="translate(137,175)"/>
<path d="M0 0 C12.54 0 25.08 0 38 0 C38 4.29 38 8.58 38 13 C34.04 13 30.08 13 26 13 C26 16.96 26 20.92 26 25 C29.96 25 33.92 25 38 25 C38 29.29 38 33.58 38 38 C25.46 38 12.92 38 0 38 C0 33.71 0 29.42 0 25 C4.29 25 8.58 25 13 25 C13 21.04 13 17.08 13 13 C8.71 13 4.42 13 0 13 C0 8.71 0 4.42 0 0 Z " fill="#4064A4" transform="translate(187,312)"/>
<path d="M0 0 C28.38 0 56.76 0 86 0 C86 3.96 86 7.92 86 12 C57.62 12 29.24 12 0 12 C0 8.04 0 4.08 0 0 Z " fill="#020202" transform="translate(163,50)"/>
<path d="M0 0 C4.29 0 8.58 0 13 0 C13 4.29 13 8.58 13 13 C9.04 13 5.08 13 1 13 C1 17.29 1 21.58 1 26 C-2.96 26 -6.92 26 -11 26 C-11 29.63 -11 33.26 -11 37 C-7.04 37 -3.08 37 1 37 C1 41.29 1 45.58 1 50 C4.96 50 8.92 50 13 50 C13 53.96 13 57.92 13 62 C17.29 62 21.58 62 26 62 C26 66.29 26 70.58 26 75 C21.71 75 17.42 75 13 75 C13 71.04 13 67.08 13 63 C8.71 63 4.42 63 0 63 C0 58.71 0 54.42 0 50 C-3.96 50 -7.92 50 -12 50 C-12 46.04 -12 42.08 -12 38 C-19.92 38 -27.84 38 -36 38 C-36 41.63 -36 45.26 -36 49 C-36.33 49 -36.66 49 -37 49 C-37 45.04 -37 41.08 -37 37 C-28.75 37 -20.5 37 -12 37 C-12 28.75 -12 20.5 -12 12 C-8.04 12 -4.08 12 0 12 C0 8.04 0 4.08 0 0 Z " fill="#98999A" transform="translate(262,275)"/>
<path d="M0 0 C4.29 0 8.58 0 13 0 C13 3.96 13 7.92 13 12 C16.96 12.33 20.92 12.66 25 13 C25 16.96 25 20.92 25 25 C26.8975 24.979375 28.795 24.95875 30.75 24.9375 C37.22344247 24.93039414 43.55827586 25.37911093 50 26 C50 29.63 50 33.26 50 37 C70.46 36.67 90.92 36.34 112 36 C112 32.37 112 28.74 112 25 C113.97854258 24.80602524 115.9578648 24.61998679 117.9375 24.4375 C119.03964844 24.33308594 120.14179688 24.22867187 121.27734375 24.12109375 C122.17582031 24.08113281 123.07429688 24.04117187 124 24 C127.30823887 27.30823887 125 33.32144372 125 38 C95.96 38 66.92 38 37 38 C37 34.04 37 30.08 37 26 C29.08 26 21.16 26 13 26 C13 29.96 13 33.92 13 38 C12.67 38 12.34 38 12 38 C12 34.04 12 30.08 12 26 C8.04 26 4.08 26 0 26 C0 25.67 0 25.34 0 25 C3.96 25 7.92 25 12 25 C12 21.04 12 17.08 12 13 C8.04 13 4.08 13 0 13 C0 8.71 0 4.42 0 0 Z " fill="#E5B58C" transform="translate(125,262)"/>
<path d="M0 0 C20.46 0 40.92 0 62 0 C62 3.96 62 7.92 62 12 C41.54 12 21.08 12 0 12 C0 8.04 0 4.08 0 0 Z " fill="#040201" transform="translate(188,263)"/>
<path d="M0 0 C3.96 0 7.92 0 12 0 C12.33 8.25 12.66 16.5 13 25 C9.04 25.495 9.04 25.495 5 26 C4.34 26.66 3.68 27.32 3 28 C2.01 28 1.02 28 0 28 C0.16242187 28.5053125 0.32484375 29.010625 0.4921875 29.53125 C1.17690643 32.86003741 1.14584886 36.11764436 1.125 39.5 C1.12306641 40.28157471 1.12113281 41.06314941 1.11914062 41.8684082 C1.01937717 56.91467688 0.45968245 71.96129306 0 87 C3.96 87 7.92 87 12 87 C12 87.33 12 87.66 12 88 C7.71 88 3.42 88 -1 88 C-1 75.46 -1 62.92 -1 50 C-5.29 50 -9.58 50 -14 50 C-14.21875 31.77083333 -14.21875 31.77083333 -13 25 C-12.67 24.67 -12.34 24.34 -12 24 C-8.04 24.33 -4.08 24.66 0 25 C0 16.75 0 8.5 0 0 Z " fill="#1D1D1D" transform="translate(63,150)"/>
<path d="M0 0 C8.25 0 16.5 0 25 0 C25 8.25 25 16.5 25 25 C16.75 25 8.5 25 0 25 C0 16.75 0 8.5 0 0 Z " fill="#030202" transform="translate(250,200)"/>
<path d="M0 0 C7.92 0 15.84 0 24 0 C24 8.25 24 16.5 24 25 C16.08 25 8.16 25 0 25 C0 16.75 0 8.5 0 0 Z " fill="#040201" transform="translate(163,200)"/>
<path d="M0 0 C3.96 0 7.92 0 12 0 C12 8.25 12 16.5 12 25 C15.96 25 19.92 25 24 25 C24 28.96 24 32.92 24 37 C20.04 37 16.08 37 12 37 C11.67 33.37 11.34 29.74 11 26 C3.08 25.67 -4.84 25.34 -13 25 C-12.67 21.04 -12.34 17.08 -12 13 C-8.04 13 -4.08 13 0 13 C0 8.71 0 4.42 0 0 Z " fill="#040303" transform="translate(113,250)"/>
<path d="M0 0 C3.96 0 7.92 0 12 0 C12 3.96 12 7.92 12 12 C24.21 12 36.42 12 49 12 C49 12.33 49 12.66 49 13 C36.79 13 24.58 13 12 13 C12 16.96 12 20.92 12 25 C8.04 25 4.08 25 0 25 C0 29.29 0 33.58 0 38 C-3.96 38 -7.92 38 -12 38 C-12 41.96 -12 45.92 -12 50 C-16.62 50 -21.24 50 -26 50 C-26 45.71 -26 41.42 -26 37 C-21.71 37 -17.42 37 -13 37 C-13 33.04 -13 29.08 -13 25 C-9.04 25 -5.08 25 -1 25 C-1 20.71 -1 16.42 -1 12 C2.96 12 6.92 12 11 12 C11 8.37 11 4.74 11 1 C7.37 1 3.74 1 0 1 C0 0.67 0 0.34 0 0 Z " fill="#8E8E8E" transform="translate(138,300)"/>
<path d="M0 0 C8.25 0 16.5 0 25 0 C25 3.96 25 7.92 25 12 C28.96 12 32.92 12 37 12 C37 16.29 37 20.58 37 25 C32.71 25 28.42 25 24 25 C24 21.04 24 17.08 24 13 C16.08 12.67 8.16 12.34 0 12 C0 8.04 0 4.08 0 0 Z " fill="#030303" transform="translate(250,63)"/>
<path d="M0 0 C8.25 0 16.5 0 25 0 C25 8.25 25 16.5 25 25 C21.04 25 17.08 25 13 25 C13 20.71 13 16.42 13 12 C8.71 12 4.42 12 0 12 C0 8.04 0 4.08 0 0 Z " fill="#030302" transform="translate(300,125)"/>
<path d="M0 0 C8.25 0 16.5 0 25 0 C25 3.96 25 7.92 25 12 C20.71 12 16.42 12 12 12 C12 16.29 12 20.58 12 25 C8.04 25 4.08 25 0 25 C0 16.75 0 8.5 0 0 Z " fill="#020202" transform="translate(138,63)"/>
<path d="M0 0 C7.92 0 15.84 0 24 0 C24 7.92 24 15.84 24 24 C20.04 24 16.08 24 12 24 C12 20.04 12 16.08 12 12 C8.04 12 4.08 12 0 12 C0 8.04 0 4.08 0 0 Z " fill="#020202" transform="translate(101,63)"/>
<path d="M0 0 C4.29 0 8.58 0 13 0 C13 24.75 13 49.5 13 75 C16.96 75 20.92 75 25 75 C25 75.33 25 75.66 25 76 C21.04 76 17.08 76 13 76 C13 79.96 13 83.92 13 88 C8.71 88 4.42 88 0 88 C0 83.71 0 79.42 0 75 C3.96 75 7.92 75 12 75 C12 54.54 12 34.08 12 13 C8.04 13 4.08 13 0 13 C0 8.71 0 4.42 0 0 Z " fill="#E8B387" transform="translate(275,187)"/>
<path d="M0 0 C7.92 0 15.84 0 24 0 C24 7.59 24 15.18 24 23 C20.04 23 16.08 23 12 23 C12 19.04 12 15.08 12 11 C8.04 11 4.08 11 0 11 C0 7.37 0 3.74 0 0 Z " fill="#020202" transform="translate(313,101)"/>
<path d="M0 0 C0.33 0.66 0.66 1.32 1 2 C5.29 2 9.58 2 14 2 C14 6.29 14 10.58 14 15 C13.67 15 13.34 15 13 15 C13 11.04 13 7.08 13 3 C9.04 3 5.08 3 1 3 C1 6.96 1 10.92 1 15 C-2.96 15 -6.92 15 -11 15 C-11 19.29 -11 23.58 -11 28 C-15.29 28 -19.58 28 -24 28 C-24 27.67 -24 27.34 -24 27 C-20.04 27 -16.08 27 -12 27 C-12 23.04 -12 19.08 -12 15 C-17.28 15 -22.56 15 -28 15 C-26.68 14.67 -25.36 14.34 -24 14 C-24 10.37 -24 6.74 -24 3 C-15.97875848 2.28586721 -8.05358138 1.85474503 0 2 C0 1.34 0 0.68 0 0 Z " fill="#26231F" transform="translate(174,160)"/>
<path d="M0 0 C12.54 0 25.08 0 38 0 C38 4.29 38 8.58 38 13 C33.71 13 29.42 13 25 13 C24.91615922 8.72412002 25.15271797 5.23641013 26 1 C21.71 1 17.42 1 13 1 C13 4.96 13 8.92 13 13 C8.71 13 4.42 13 0 13 C0 8.71 0 4.42 0 0 Z " fill="#294A83" transform="translate(187,312)"/>
<path d="M0 0 C3.96 0 7.92 0 12 0 C12 3.96 12 7.92 12 12 C15.96 12 19.92 12 24 12 C24 16.29 24 20.58 24 25 C20.04 25 16.08 25 12 25 C11.67 21.37 11.34 17.74 11 14 C7.37 13.67 3.74 13.34 0 13 C0 8.71 0 4.42 0 0 Z " fill="#040404" transform="translate(63,125)"/>
<path d="M0 0 C3.96 0 7.92 0 12 0 C12.33 8.25 12.66 16.5 13 25 C9.04 25 5.08 25 1 25 C0 24 0 24 -0.11352539 21.68334961 C-0.10828857 20.68311768 -0.10305176 19.68288574 -0.09765625 18.65234375 C-0.09443359 17.57275391 -0.09121094 16.49316406 -0.08789062 15.38085938 C-0.07951172 14.24455078 -0.07113281 13.10824219 -0.0625 11.9375 C-0.05798828 10.79732422 -0.05347656 9.65714844 -0.04882812 8.48242188 C-0.0369976 5.65492582 -0.0190615 2.82745655 0 0 Z " fill="#030302" transform="translate(63,150)"/>
<path d="M0 0 C3.96 0 7.92 0 12 0 C12 7.92 12 15.84 12 24 C8.04 24 4.08 24 0 24 C0 16.08 0 8.16 0 0 Z " fill="#EFCCAA" transform="translate(100,213)"/>
<path d="M0 0 C7.92 0 15.84 0 24 0 C24 3.63 24 7.26 24 11 C23 12 23 12 20.77514648 12.11352539 C19.81680908 12.10828857 18.85847168 12.10305176 17.87109375 12.09765625 C16.31938477 12.09282227 16.31938477 12.09282227 14.73632812 12.08789062 C13.64771484 12.07951172 12.55910156 12.07113281 11.4375 12.0625 C9.7987793 12.05573242 9.7987793 12.05573242 8.12695312 12.04882812 C5.41794568 12.0369984 2.7089662 12.01906231 0 12 C0 8.04 0 4.08 0 0 Z " fill="#020202" transform="translate(288,88)"/>
<path d="M0 0 C2.53541298 0.09086451 5.03554784 0.2370945 7.5625 0.4375 C8.62887695 0.51581055 8.62887695 0.51581055 9.71679688 0.59570312 C11.47821999 0.72574107 13.23916173 0.86226897 15 1 C15 5.29 15 9.58 15 14 C14.67 14 14.34 14 14 14 C14 10.04 14 6.08 14 2 C10.04 2 6.08 2 2 2 C2 5.96 2 9.92 2 14 C-1.96 14 -5.92 14 -10 14 C-10 17.96 -10 21.92 -10 26 C-6.04 26 -2.08 26 2 26 C2 30.29 2 34.58 2 39 C1.67 39 1.34 39 1 39 C1 35.04 1 31.08 1 27 C-2.96 27 -6.92 27 -11 27 C-11 23.04 -11 19.08 -11 15 C-14.96 15 -18.92 15 -23 15 C-23 14.34 -23 13.68 -23 13 C-18.71 13 -14.42 13 -10 13 C-10 9.37 -10 5.74 -10 2 C-8.535625 1.855625 -7.07125 1.71125 -5.5625 1.5625 C-2.48153302 1.46504174 -2.48153302 1.46504174 0 0 Z " fill="#474543" transform="translate(98,236)"/>
<path d="M0 0 C0 4.29 0 8.58 0 13 C-24.75 13 -49.5 13 -75 13 C-75 12.67 -75 12.34 -75 12 C-44.31 11.505 -44.31 11.505 -13 11 C-13 7.37 -13 3.74 -13 0 C-11.22625 -0.185625 -9.4525 -0.37125 -7.625 -0.5625 C-6.12839844 -0.71912109 -6.12839844 -0.71912109 -4.6015625 -0.87890625 C-2 -1 -2 -1 0 0 Z " fill="#DDB795" transform="translate(250,287)"/>
<path d="M0 0 C11.3261163 -0.02312255 22.65222703 -0.04091464 33.97836208 -0.05181217 C39.23696664 -0.05704119 44.4955551 -0.06413918 49.75415039 -0.07543945 C54.82453127 -0.08626766 59.89489662 -0.09227669 64.96528816 -0.09487724 C66.90426948 -0.09673161 68.84324991 -0.10035245 70.78222466 -0.10573006 C73.4882176 -0.1129396 76.19414556 -0.11399098 78.90014648 -0.11352539 C80.11502495 -0.1189183 80.11502495 -0.1189183 81.35444641 -0.12442017 C86.88594784 -0.11405216 86.88594784 -0.11405216 88 1 C88 4.96 88 8.92 88 13 C95.92 13 103.84 13 112 13 C112 13.33 112 13.66 112 14 C89.59754189 15.31160366 67.23693437 14.93708766 44.81195068 14.60510254 C39.85647039 14.53321981 34.90088913 14.46913181 29.9453125 14.40429688 C20.29676401 14.27695941 10.64835359 14.14129025 1 14 C1 13.67 1 13.34 1 13 C29.05 13 57.1 13 86 13 C86 9.04 86 5.08 86 1 C57.62 1 29.24 1 0 1 C0 0.67 0 0.34 0 0 Z " fill="#737372" transform="translate(163,49)"/>
<path d="M0 0 C0.33 0 0.66 0 1 0 C1 3.96 1 7.92 1 12 C3.49820313 11.98259766 3.49820313 11.98259766 6.046875 11.96484375 C8.28124887 11.95545562 10.51562396 11.94635653 12.75 11.9375 C13.84183594 11.92912109 14.93367188 11.92074219 16.05859375 11.91210938 C23.43425837 11.89028788 30.65735436 12.29568278 38 13 C38 16.96 38 20.92 38 25 C33.71 25 29.42 25 25 25 C25 21.04 25 17.08 25 13 C17.08 13 9.16 13 1 13 C1 16.96 1 20.92 1 25 C0.67 25 0.34 25 0 25 C0 21.04 0 17.08 0 13 C-3.96 13 -7.92 13 -12 13 C-12 12.67 -12 12.34 -12 12 C-8.04 12 -4.08 12 0 12 C0 8.04 0 4.08 0 0 Z " fill="#E1AD87" transform="translate(137,275)"/>
<path d="M0 0 C1.5631897 0.00785522 1.5631897 0.00785522 3.15795898 0.01586914 C4.28266602 0.0190918 5.40737305 0.02231445 6.56616211 0.02563477 C7.75016602 0.03401367 8.93416992 0.04239258 10.15405273 0.05102539 C11.34192383 0.05553711 12.52979492 0.06004883 13.75366211 0.06469727 C16.69967499 0.07652864 19.64558954 0.09301252 22.59155273 0.11352539 C22.59155273 0.44352539 22.59155273 0.77352539 22.59155273 1.11352539 C14.67155273 1.11352539 6.75155273 1.11352539 -1.40844727 1.11352539 C-1.40844727 5.07352539 -1.40844727 9.03352539 -1.40844727 13.11352539 C2.22155273 13.11352539 5.85155273 13.11352539 9.59155273 13.11352539 C9.59155273 17.07352539 9.59155273 21.03352539 9.59155273 25.11352539 C5.63155273 25.11352539 1.67155273 25.11352539 -2.40844727 25.11352539 C-3.16869178 17.13095794 -3.87162914 9.13747015 -3.40844727 1.11352539 C-2.40844727 0.11352539 -2.40844727 0.11352539 0 0 Z " fill="#3B3B3C" transform="translate(102.408447265625,61.886474609375)"/>
<path d="M0 0 C4.29 0 8.58 0 13 0 C13.86885665 8.52123119 14.00147451 16.70261117 13.5625 25.25 C13.51029297 26.38824219 13.45808594 27.52648437 13.40429688 28.69921875 C13.27639512 31.46654766 13.14154253 34.2333411 13 37 C12.67 37 12.34 37 12 37 C12 28.75 12 20.5 12 12 C8.04 12 4.08 12 0 12 C0 8.04 0 4.08 0 0 Z " fill="#DBAE8B" transform="translate(150,188)"/>
<path d="M0 0 C2.35694954 0.09031574 4.71153582 0.24688128 7.0625 0.4375 C8.35285156 0.53933594 9.64320313 0.64117187 10.97265625 0.74609375 C12.47119141 0.87177734 12.47119141 0.87177734 14 1 C14 5.29 14 9.58 14 14 C13.67 14 13.34 14 13 14 C13 10.04 13 6.08 13 2 C9.04 2 5.08 2 1 2 C1 5.96 1 9.92 1 14 C-2.96 14 -6.92 14 -11 14 C-11 10.04 -11 6.08 -11 2 C-7.30691564 1.26138313 -4.64294036 1 -1 1 C-0.67 0.67 -0.34 0.34 0 0 Z " fill="#191919" transform="translate(299,136)"/>
<path d="M0 0 C0.33 0 0.66 0 1 0 C1 4.29 1 8.58 1 13 C3.6915625 12.9690625 3.6915625 12.9690625 6.4375 12.9375 C8.29166122 12.9161878 10.14712498 12.92773498 12 13 C13 14 13 14 13.09765625 16.50390625 C13.06510417 19.3359375 13.03255208 22.16796875 13 25 C9.04 25 5.08 25 1 25 C0.67 21.37 0.34 17.74 0 14 C-3.96 13.67 -7.92 13.34 -12 13 C-12 12.67 -12 12.34 -12 12 C-8.04 12 -4.08 12 0 12 C0 8.04 0 4.08 0 0 Z " fill="#323232" transform="translate(62,125)"/>
<path d="M0 0 C4.29 0 8.58 0 13 0 C13 3.96 13 7.92 13 12 C16.63 12 20.26 12 24 12 C24 12.33 24 12.66 24 13 C15.92648346 13.12883271 8.03891904 12.76561134 0 12 C0 8.04 0 4.08 0 0 Z " fill="#E5E5E5" transform="translate(262,338)"/>
<path d="M0 0 C4.29 0.33 8.58 0.66 13 1 C13 4.96 13 8.92 13 13 C8.71 13 4.42 13 0 13 C0 8.71 0 4.42 0 0 Z " fill="#254881" transform="translate(187,312)"/>
<path d="M0 0 C3.96 0 7.92 0 12 0 C12 4.29 12 8.58 12 13 C8.04 13 4.08 13 0 13 C0 8.71 0 4.42 0 0 Z " fill="#E8B389" transform="translate(163,175)"/>
<path d="M0 0 C3.96 0 7.92 0 12 0 C12 4.29 12 8.58 12 13 C8.04 13 4.08 13 0 13 C0 8.71 0 4.42 0 0 Z " fill="#121313" transform="translate(125,49)"/>
<path d="M0 0 C3.09244792 0.03255208 6.18489583 0.06510417 9.27734375 0.09765625 C9.27734375 4.05765625 9.27734375 8.01765625 9.27734375 12.09765625 C6.75258913 13.36003356 4.96533909 13.19622029 2.15234375 13.16015625 C1.24226563 13.15113281 0.3321875 13.14210937 -0.60546875 13.1328125 C-1.30414063 13.12121094 -2.0028125 13.10960937 -2.72265625 13.09765625 C-2.91663101 11.11911367 -3.10266946 9.13979145 -3.28515625 7.16015625 C-3.38957031 6.05800781 -3.49398438 4.95585937 -3.6015625 3.8203125 C-3.64152344 2.92183594 -3.68148438 2.02335938 -3.72265625 1.09765625 C-2.72265625 0.09765625 -2.72265625 0.09765625 0 0 Z " fill="#E5B287" transform="translate(265.72265625,174.90234375)"/>
<path d="M0 0 C3.96 0 7.92 0 12 0 C12 3.96 12 7.92 12 12 C7.71 12 3.42 12 -1 12 C-1.125 2.25 -1.125 2.25 0 0 Z " fill="#E6B38A" transform="translate(188,175)"/>
<path d="M0 0 C3.96 0 7.92 0 12 0 C12 3.96 12 7.92 12 12 C5.565 12.495 5.565 12.495 -1 13 C-0.67 8.71 -0.34 4.42 0 0 Z " fill="#E8B289" transform="translate(213,200)"/>
<path d="M0 0 C3.96 0 7.92 0 12 0 C12.33 3.96 12.66 7.92 13 12 C8.31811263 12.93637747 5.59173137 12.88302526 1 12 C0 11 0 11 -0.09765625 8.49609375 C-0.06510417 5.6640625 -0.03255208 2.83203125 0 0 Z " fill="#1A1A1A" transform="translate(125,150)"/>
<path d="M0 0 C3.96 0 7.92 0 12 0 C12 3.96 12 7.92 12 12 C8.04 12 4.08 12 0 12 C0 8.04 0 4.08 0 0 Z " fill="#28497E" transform="translate(213,338)"/>
<path d="M0 0 C3.96 0 7.92 0 12 0 C12 3.96 12 7.92 12 12 C8.04 12 4.08 12 0 12 C0 8.04 0 4.08 0 0 Z " fill="#27477C" transform="translate(188,338)"/>
<path d="M0 0 C3.96 0 7.92 0 12 0 C12 3.96 12 7.92 12 12 C8.04 12 4.08 12 0 12 C0 8.04 0 4.08 0 0 Z " fill="#040404" transform="translate(275,338)"/>
<path d="M0 0 C3.96 0 7.92 0 12 0 C12 3.96 12 7.92 12 12 C8.04 12 4.08 12 0 12 C0 8.04 0 4.08 0 0 Z " fill="#040404" transform="translate(113,338)"/>
<path d="M0 0 C3.96 0 7.92 0 12 0 C12 3.96 12 7.92 12 12 C8.04 12 4.08 12 0 12 C0 8.04 0 4.08 0 0 Z " fill="#040404" transform="translate(263,325)"/>
<path d="M0 0 C3.96 0 7.92 0 12 0 C12 3.96 12 7.92 12 12 C8.04 12 4.08 12 0 12 C0 8.04 0 4.08 0 0 Z " fill="#264475" transform="translate(200,325)"/>
<path d="M0 0 C3.96 0 7.92 0 12 0 C12 3.96 12 7.92 12 12 C8.04 12 4.08 12 0 12 C0 8.04 0 4.08 0 0 Z " fill="#040403" transform="translate(125,325)"/>
<path d="M0 0 C3.96 0 7.92 0 12 0 C12 3.96 12 7.92 12 12 C8.04 12 4.08 12 0 12 C0 8.04 0 4.08 0 0 Z " fill="#040404" transform="translate(250,313)"/>
<path d="M0 0 C3.96 0 7.92 0 12 0 C12 3.96 12 7.92 12 12 C8.04 12 4.08 12 0 12 C0 8.04 0 4.08 0 0 Z " fill="#030303" transform="translate(138,313)"/>
<path d="M0 0 C3.96 0 7.92 0 12 0 C12 3.96 12 7.92 12 12 C8.04 12 4.08 12 0 12 C0 8.04 0 4.08 0 0 Z " fill="#070504" transform="translate(250,288)"/>
<path d="M0 0 C3.96 0 7.92 0 12 0 C12 3.96 12 7.92 12 12 C8.04 12 4.08 12 0 12 C0 8.04 0 4.08 0 0 Z " fill="#030403" transform="translate(263,275)"/>
<path d="M0 0 C3.96 0 7.92 0 12 0 C12 3.96 12 7.92 12 12 C8.04 12 4.08 12 0 12 C0 8.04 0 4.08 0 0 Z " fill="#050403" transform="translate(275,263)"/>
<path d="M0 0 C3.96 0 7.92 0 12 0 C12 3.96 12 7.92 12 12 C8.04 12 4.08 12 0 12 C0 8.04 0 4.08 0 0 Z " fill="#020202" transform="translate(88,250)"/>
<path d="M0 0 C3.96 0 7.92 0 12 0 C12 3.96 12 7.92 12 12 C8.04 12 4.08 12 0 12 C0 8.04 0 4.08 0 0 Z " fill="#040302" transform="translate(100,238)"/>
<path d="M0 0 C3.96 0 7.92 0 12 0 C12 3.96 12 7.92 12 12 C8.04 12 4.08 12 0 12 C0 8.04 0 4.08 0 0 Z " fill="#E5B48D" transform="translate(250,163)"/>
<path d="M0 0 C3.96 0 7.92 0 12 0 C12 3.96 12 7.92 12 12 C8.04 12 4.08 12 0 12 C0 8.04 0 4.08 0 0 Z " fill="#E4B48E" transform="translate(175,163)"/>
<path d="M0 0 C2.31 0.33 4.62 0.66 7 1 C7 1.66 7 2.32 7 3 C5.35 3.66 3.7 4.32 2 5 C2 6.65 2 8.3 2 10 C3.98 9.34 5.96 8.68 8 8 C7.979375 9.2375 7.95875 10.475 7.9375 11.75 C7.92728645 15.95966434 7.92728645 15.95966434 9 20 C9.66 20.33 10.32 20.66 11 21 C11 21.66 11 22.32 11 23 C11.66 23.33 12.32 23.66 13 24 C9.04 24 5.08 24 1 24 C0.308928 15.96628797 -0.14540853 8.06209521 0 0 Z " fill="#E4B28B" transform="translate(112,226)"/>
<path d="M0 0 C4.29 0 8.58 0 13 0 C13 24.75 13 49.5 13 75 C16.96 75 20.92 75 25 75 C25 75.33 25 75.66 25 76 C21.04 76 17.08 76 13 76 C13 79.96 13 83.92 13 88 C12.67 88 12.34 88 12 88 C12 84.04 12 80.08 12 76 C8.04 76 4.08 76 0 76 C0 75.67 0 75.34 0 75 C3.96 75 7.92 75 12 75 C12 50.58 12 26.16 12 1 C8.04 1 4.08 1 0 1 C0 0.67 0 0.34 0 0 Z " fill="#907D6E" transform="translate(275,187)"/>
<path d="M0 0 C3.63 0 7.26 0 11 0 C11 3.63 11 7.26 11 11 C7.37 11 3.74 11 0 11 C0 7.37 0 3.74 0 0 Z " fill="#030202" transform="translate(163,163)"/>
<path d="M0 0 C2.33837891 -0.34057617 2.33837891 -0.34057617 5.2265625 -0.29296875 C6.7734375 -0.2784668 6.7734375 -0.2784668 8.3515625 -0.26367188 C9.43179687 -0.23853516 10.51203125 -0.21339844 11.625 -0.1875 C12.71296875 -0.17396484 13.8009375 -0.16042969 14.921875 -0.14648438 C17.61507409 -0.11104754 20.30729374 -0.06164331 23 0 C23 0.66 23 1.32 23 2 C15.41 2 7.82 2 0 2 C0 10.25 0 18.5 0 27 C8.25 27 16.5 27 25 27 C25 24.03 25 21.06 25 18 C25.66 18 26.32 18 27 18 C27 21.3 27 24.6 27 28 C24.25268757 29.37365621 22.18332936 29.0128639 19.1171875 28.87890625 C17.95058594 28.83056641 16.78398437 28.78222656 15.58203125 28.73242188 C14.35871094 28.67634766 13.13539063 28.62027344 11.875 28.5625 C10.64394531 28.51029297 9.41289062 28.45808594 8.14453125 28.40429688 C5.09611412 28.2743256 2.0480005 28.13934981 -1 28 C-2.39165245 23.18092619 -2.18413771 18.41705239 -2.1875 13.4375 C-2.19974609 12.47908203 -2.21199219 11.52066406 -2.22460938 10.53320312 C-2.22654297 9.61345703 -2.22847656 8.69371094 -2.23046875 7.74609375 C-2.23457764 6.90747803 -2.23868652 6.0688623 -2.24291992 5.20483398 C-2 3 -2 3 0 0 Z " fill="#E7CDB5" transform="translate(250,198)"/>
<path d="M0 0 C1.32 0.33 2.64 0.66 4 1 C3.67 2.65 3.34 4.3 3 6 C-0.63 6 -4.26 6 -8 6 C-8 13.92 -8 21.84 -8 30 C-5.03 30 -2.06 30 1 30 C1 30.33 1 30.66 1 31 C-1.97 31 -4.94 31 -8 31 C-8 33.64 -8 36.28 -8 39 C-8.33 39 -8.66 39 -9 39 C-9 36.36 -9 33.72 -9 31 C-11.97 31 -14.94 31 -18 31 C-18 30.67 -18 30.34 -18 30 C-14.04 29.505 -14.04 29.505 -10 29 C-9.67 21.08 -9.34 13.16 -9 5 C-6.03 5 -3.06 5 0 5 C0 3.35 0 1.7 0 0 Z " fill="#0F0F0F" transform="translate(96,207)"/>
<path d="M0 0 C11.88 0 23.76 0 36 0 C36 4.29 36 8.58 36 13 C32.04 13 28.08 13 24 13 C24 12.67 24 12.34 24 12 C28.455 11.505 28.455 11.505 33 11 C33 8.03 33 5.06 33 2 C22.11 1.67 11.22 1.34 0 1 C0 0.67 0 0.34 0 0 Z " fill="#22375A" transform="translate(189,312)"/>
<path d="M0 0 C0.33 0 0.66 0 1 0 C1 3.96 1 7.92 1 12 C4.96 12 8.92 12 13 12 C13 12.33 13 12.66 13 13 C9.04 13 5.08 13 1 13 C1 16.63 1 20.26 1 24 C0.67 24 0.34 24 0 24 C-0.495 19.05 -0.495 19.05 -1 14 C-12.385 13.505 -12.385 13.505 -24 13 C-24 16.96 -24 20.92 -24 25 C-24.33 25 -24.66 25 -25 25 C-25 20.71 -25 16.42 -25 12 C-16.75 12 -8.5 12 0 12 C0 8.04 0 4.08 0 0 Z " fill="#687EA2" transform="translate(212,325)"/>
<path d="M0 0 C0.33 0 0.66 0 1 0 C1 3.96 1 7.92 1 12 C9.25 12 17.5 12 26 12 C26 16.29 26 20.58 26 25 C25.67 25 25.34 25 25 25 C25 21.04 25 17.08 25 13 C17.08 13 9.16 13 1 13 C1 16.96 1 20.92 1 25 C0.67 25 0.34 25 0 25 C0 21.04 0 17.08 0 13 C-3.96 13 -7.92 13 -12 13 C-12 12.67 -12 12.34 -12 12 C-8.04 12 -4.08 12 0 12 C0 8.04 0 4.08 0 0 Z " fill="#7B695A" transform="translate(137,275)"/>
<path d="M0 0 C8.25 0 16.5 0 25 0 C25 5.28 25 10.56 25 16 C24.67 16 24.34 16 24 16 C23.67 11.38 23.34 6.76 23 2 C16.4 2 9.8 2 3 2 C1.29811553 5.40376894 1.81541886 9.18675899 1.8125 12.9375 C1.80025391 13.76185547 1.78800781 14.58621094 1.77539062 15.43554688 C1.77345703 16.22896484 1.77152344 17.02238281 1.76953125 17.83984375 C1.76542236 18.56550537 1.76131348 19.29116699 1.75708008 20.03881836 C1.89117166 22.32232248 1.89117166 22.32232248 4 25 C2.68 25 1.36 25 0 25 C0 16.75 0 8.5 0 0 Z " fill="#120500" transform="translate(250,200)"/>
<path d="M0 0 C0.36567164 6.460199 0.36567164 6.460199 -1.3125 8.9375 C-3 10 -3 10 -6 10 C-8 9 -8 9 -9 8 C-9.04080783 6.00041636 -9.04254356 3.99954746 -9 2 C-2.25 0 -2.25 0 0 0 Z " fill="#244782" transform="translate(211,326)"/>
<path d="M0 0 C0.33 0 0.66 0 1 0 C1 2.31 1 4.62 1 7 C-1.64 7.33 -4.28 7.66 -7 8 C-7.66 10.97 -8.32 13.94 -9 17 C-5.7 17.33 -2.4 17.66 1 18 C1 18.33 1 18.66 1 19 C-2.96 19 -6.92 19 -11 19 C-11.09765625 9.72265625 -11.09765625 9.72265625 -11 7 C-9.33657163 5.33657163 -7.2174291 5.63951903 -4.9375 5.4375 C-3.55884766 5.31181641 -3.55884766 5.31181641 -2.15234375 5.18359375 C-1.44207031 5.12300781 -0.73179688 5.06242188 0 5 C0 3.35 0 1.7 0 0 Z " fill="#0F0907" transform="translate(124,206)"/>
<path d="M0 0 C0.33 0.66 0.66 1.32 1 2 C5.29 2 9.58 2 14 2 C14 6.29 14 10.58 14 15 C13.67 15 13.34 15 13 15 C13 11.04 13 7.08 13 3 C9.04 3 5.08 3 1 3 C1 6.96 1 10.92 1 15 C-2.96 15 -6.92 15 -11 15 C-11 14.67 -11 14.34 -11 14 C-7.37 14 -3.74 14 0 14 C0 10.37 0 6.74 0 3 C-3.63 3 -7.26 3 -11 3 C-11 2.67 -11 2.34 -11 2 C-7.37 2 -3.74 2 0 2 C0 1.34 0 0.68 0 0 Z " fill="#3E2B1E" transform="translate(174,160)"/>
<path d="M0 0 C0.99 0 1.98 0 3 0 C3 3.96 3 7.92 3 12 C1.35 12 -0.3 12 -2 12 C-3.6442351 7.06729471 -2.18615592 4.45975807 0 0 Z " fill="#E1E1DE" transform="translate(135,338)"/>
<path d="M0 0 C3.63 0 7.26 0 11 0 C11 3.96 11 7.92 11 12 C8.47524538 13.26237731 6.68799534 13.09856404 3.875 13.0625 C2.96492188 13.05347656 2.05484375 13.04445312 1.1171875 13.03515625 C0.41851562 13.02355469 -0.28015625 13.01195312 -1 13 C-1 12.67 -1 12.34 -1 12 C-0.04287109 11.92652344 -0.04287109 11.92652344 0.93359375 11.8515625 C2.17302734 11.73941406 2.17302734 11.73941406 3.4375 11.625 C4.26121094 11.55539063 5.08492188 11.48578125 5.93359375 11.4140625 C6.61550781 11.27742187 7.29742187 11.14078125 8 11 C9.4783226 8.04335481 9.06032783 5.25770263 9 2 C8.401875 2.33 7.80375 2.66 7.1875 3 C5 4 5 4 2 4 C2 3.34 2 2.68 2 2 C1.34 2 0.68 2 0 2 C0 1.34 0 0.68 0 0 Z " fill="#E5BC9F" transform="translate(264,175)"/>
<path d="M0 0 C0.33 0 0.66 0 1 0 C1 7.26 1 14.52 1 22 C4.96 22 8.92 22 13 22 C13 25.96 13 29.92 13 34 C12.34 33.67 11.68 33.34 11 33 C11.04882812 29.92382812 11.04882812 29.92382812 11.09765625 26.84765625 C11.20561184 24.98267859 11.20561184 24.98267859 10 24 C6.7 23.67 3.4 23.34 0 23 C0 15.41 0 7.82 0 0 Z " fill="#201109" transform="translate(124,253)"/>
<path d="M0 0 C0.33 0 0.66 0 1 0 C1 3.96 1 7.92 1 12 C4.96 12 8.92 12 13 12 C13 12.33 13 12.66 13 13 C9.04 13 5.08 13 1 13 C1 16.96 1 20.92 1 25 C0.67 25 0.34 25 0 25 C0 21.04 0 17.08 0 13 C-3.96 13 -7.92 13 -12 13 C-12 12.67 -12 12.34 -12 12 C-8.04 12 -4.08 12 0 12 C0 8.04 0 4.08 0 0 Z " fill="#7E756B" transform="translate(262,275)"/>
<path d="M0 0 C0.33 0 0.66 0 1 0 C1 3.96 1 7.92 1 12 C4.96 12 8.92 12 13 12 C13 12.33 13 12.66 13 13 C9.04 13 5.08 13 1 13 C1 16.96 1 20.92 1 25 C0.67 25 0.34 25 0 25 C0 21.04 0 17.08 0 13 C-3.96 13 -7.92 13 -12 13 C-12 12.67 -12 12.34 -12 12 C-8.04 12 -4.08 12 0 12 C0 8.04 0 4.08 0 0 Z " fill="#141414" transform="translate(112,75)"/>
<path d="M0 0 C3.96 0 7.92 0 12 0 C12 0.99 12 1.98 12 3 C8.7 2.67 5.4 2.34 2 2 C1.67 5.3 1.34 8.6 1 12 C4.63 12 8.26 12 12 12 C12 12.33 12 12.66 12 13 C8.04 13 4.08 13 0 13 C0 8.71 0 4.42 0 0 Z " fill="#E4BA9A" transform="translate(163,175)"/>
<path d="M0 0 C0.33 0 0.66 0 1 0 C1 4.29 1 8.58 1 13 C-2.63 13 -6.26 13 -10 13 C-7.4345406 10.4345406 -5.52313332 10.45953913 -2 10 C-2.04125 8.72125 -2.0825 7.4425 -2.125 6.125 C-2.1953125 3.9453125 -2.1953125 3.9453125 -2 2 C-1.34 1.34 -0.68 0.68 0 0 Z " fill="#EED5BC" transform="translate(274,262)"/>
<path d="M0 0 C0.66 0 1.32 0 2 0 C2 3.3 2 6.6 2 10 C-0.69770258 11.34885129 -2.65273375 11.01578483 -5.6640625 10.87890625 C-6.78554688 10.83056641 -7.90703125 10.78222656 -9.0625 10.73242188 C-10.8259375 10.64831055 -10.8259375 10.64831055 -12.625 10.5625 C-13.80835938 10.51029297 -14.99171875 10.45808594 -16.2109375 10.40429688 C-19.14087561 10.27433994 -22.07049673 10.13936472 -25 10 C-25 9.67 -25 9.34 -25 9 C-16.75 9 -8.5 9 0 9 C0 6.03 0 3.06 0 0 Z " fill="#DBC3AC" transform="translate(275,216)"/>
<path d="M0 0 C0.99 0.33 1.98 0.66 3 1 C3 3.97 3 6.94 3 10 C6.3 10.66 9.6 11.32 13 12 C13 12.33 13 12.66 13 13 C8.71 13 4.42 13 0 13 C0 8.71 0 4.42 0 0 Z " fill="#425878" transform="translate(187,312)"/>
<path d="M0 0 C0.33 0 0.66 0 1 0 C1.02686553 1.97909398 1.04633375 3.95828971 1.0625 5.9375 C1.07410156 7.03964844 1.08570313 8.14179688 1.09765625 9.27734375 C1 12 1 12 0 13 C-2.01964199 13.07244053 -4.04167124 13.08377188 -6.0625 13.0625 C-7.16722656 13.05347656 -8.27195313 13.04445312 -9.41015625 13.03515625 C-10.69212891 13.01775391 -10.69212891 13.01775391 -12 13 C-12 12.67 -12 12.34 -12 12 C-11.36191406 11.86722656 -10.72382813 11.73445312 -10.06640625 11.59765625 C-9.24011719 11.42105469 -8.41382813 11.24445313 -7.5625 11.0625 C-6.73878906 10.88847656 -5.91507813 10.71445313 -5.06640625 10.53515625 C-3.02338796 10.19247006 -3.02338796 10.19247006 -2 9 C-1.79395915 7.67218122 -1.6337041 6.33704105 -1.5 5 C-1.11111111 1.11111111 -1.11111111 1.11111111 0 0 Z " fill="#453428" transform="translate(212,200)"/>
<path d="M0 0 C3.96 0 7.92 0 12 0 C11.67 1.32 11.34 2.64 11 4 C10.67 3.67 10.34 3.34 10 3 C8.65252916 2.76924918 7.29622435 2.58846937 5.9375 2.4375 C4.638125 2.293125 3.33875 2.14875 2 2 C2 2.66 2 3.32 2 4 C1.34 4 0.68 4 0 4 C0 6.64 0 9.28 0 12 C-0.33 12 -0.66 12 -1 12 C-1.02698189 10.37509046 -1.04638757 8.75005367 -1.0625 7.125 C-1.07410156 6.22007812 -1.08570313 5.31515625 -1.09765625 4.3828125 C-1 2 -1 2 0 0 Z " fill="#E2B997" transform="translate(188,175)"/>
<path d="M0 0 C3.96 0 7.92 0 12 0 C12 0.33 12 0.66 12 1 C7.545 1.495 7.545 1.495 3 2 C2.67 5.3 2.34 8.6 2 12 C1.01 12 0.02 12 -1 12 C-0.67 8.04 -0.34 4.08 0 0 Z " fill="#DBB597" transform="translate(213,200)"/>
<path d="M0 0 C3.96 0 7.92 0 12 0 C12 3.96 12 7.92 12 12 C10.68 11.67 9.36 11.34 8 11 C8.66 10.34 9.32 9.68 10 9 C10.45811675 7.02764667 10.45811675 7.02764667 10.625 4.875 C10.74875 3.59625 10.8725 2.3175 11 1 C9.741875 1.12375 8.48375 1.2475 7.1875 1.375 C6.47980469 1.44460937 5.77210938 1.51421875 5.04296875 1.5859375 C2.70011858 1.92665391 2.70011858 1.92665391 0 4 C0 2.68 0 1.36 0 0 Z " fill="#E2B897" transform="translate(275,188)"/>
<path d="M0 0 C0.99 0 1.98 0 3 0 C2.67 4.62 2.34 9.24 2 14 C1.34 14 0.68 14 0 14 C0 9.38 0 4.76 0 0 Z " fill="#E7CFB7" transform="translate(275,202)"/>
<path d="M0 0 C-0.33 1.32 -0.66 2.64 -1 4 C-1.66 4 -2.32 4 -3 4 C-3.33 4.66 -3.66 5.32 -4 6 C-4 5.34 -4 4.68 -4 4 C-5.32 4 -6.64 4 -8 4 C-7.6875 2.0625 -7.6875 2.0625 -7 0 C-3.86650268 -1.04449911 -3.01031744 -0.93423645 0 0 Z " fill="#E7AD82" transform="translate(250,289)"/>
<path d="M0 0 C2.64 0 5.28 0 8 0 C6 1.33333333 4 2.66666667 2 4 C1.63702064 5.97747122 1.63702064 5.97747122 1.8125 8.125 C1.9053125 10.043125 1.9053125 10.043125 2 12 C1.34 12 0.68 12 0 12 C0 8.04 0 4.08 0 0 Z " fill="#100600" transform="translate(263,275)"/>
<path d="M0 0 C0.66 0 1.32 0 2 0 C2 2.97 2 5.94 2 9 C0.35 8.67 -1.3 8.34 -3 8 C-2.67 7.01 -2.34 6.02 -2 5 C-1.67 5 -1.34 5 -1 5 C-0.67 3.35 -0.34 1.7 0 0 Z " fill="#E8B286" transform="translate(160,190)"/>
<path d="M0 0 C0.33 0 0.66 0 1 0 C1 3.96 1 7.92 1 12 C1.99 12.33 2.98 12.66 4 13 C4.66 13.66 5.32 14.32 6 15 C4.02 15 2.04 15 0 15 C0 10.05 0 5.1 0 0 Z " fill="#F1D4B6" transform="translate(101,222)"/>
<path d="M0 0 C0.33 0 0.66 0 1 0 C1 2.31 1 4.62 1 7 C-1.97 7 -4.94 7 -8 7 C-8 6.67 -8 6.34 -8 6 C-6.02 5.67 -4.04 5.34 -2 5 C-1.855625 4.360625 -1.71125 3.72125 -1.5625 3.0625 C-1 1 -1 1 0 0 Z " fill="#E3B994" transform="translate(174,292)"/>
<path d="M0 0 C0 1.98 0 3.96 0 6 C-1.32 6 -2.64 6 -4 6 C-3.625 3.5625 -3.625 3.5625 -3 1 C-1 0 -1 0 0 0 Z " fill="#ECAD7C" transform="translate(117,230)"/>
<path d="M0 0 C1.67542976 0.28604898 3.34385343 0.61781233 5 1 C4.01 2.485 4.01 2.485 3 4 C2.01 4 1.02 4 0 4 C0.33 5.32 0.66 6.64 1 8 C0.34 7.67 -0.32 7.34 -1 7 C-1.04254356 5.00045254 -1.04080783 2.99958364 -1 1 C-0.67 0.67 -0.34 0.34 0 0 Z " fill="#171717" transform="translate(63,174)"/>
<path d="M0 0 C0.66 0 1.32 0 2 0 C2 1.32 2 2.64 2 4 C-0.64 4 -3.28 4 -6 4 C-5.67 3.34 -5.34 2.68 -5 2 C-3.67696283 1.6278958 -2.34262065 1.29369827 -1 1 C-0.67 0.67 -0.34 0.34 0 0 Z " fill="#100802" transform="translate(135,233)"/>
<path d="M0 0 C2.97 0.33 5.94 0.66 9 1 C8.01 2.485 8.01 2.485 7 4 C4.375 4.1875 4.375 4.1875 2 4 C2 3.34 2 2.68 2 2 C1.34 2 0.68 2 0 2 C0 1.34 0 0.68 0 0 Z " fill="#E7B894" transform="translate(264,175)"/>
<path d="M0 0 C3.3 0 6.6 0 10 0 C10 0.33 10 0.66 10 1 C8.9275 1.103125 7.855 1.20625 6.75 1.3125 C3.14179128 1.97400493 1.63604977 2.57483421 -1 5 C-0.67 3.35 -0.34 1.7 0 0 Z " fill="#284473" transform="translate(190,313)"/>
<path d="M0 0 C1.32 0.33 2.64 0.66 4 1 C4 2.32 4 3.64 4 5 C2.68 5 1.36 5 0 5 C0 3.35 0 1.7 0 0 Z " fill="#10161B" transform="translate(96,207)"/>
<path d="M0 0 C0.66 0 1.32 0 2 0 C2 0.99 2 1.98 2 3 C-1.96 3 -5.92 3 -10 3 C-10 2.67 -10 2.34 -10 2 C-9.04287109 1.90912109 -9.04287109 1.90912109 -8.06640625 1.81640625 C-6.82697266 1.69072266 -6.82697266 1.69072266 -5.5625 1.5625 C-4.73878906 1.48128906 -3.91507813 1.40007812 -3.06640625 1.31640625 C-1.01337975 1.21069185 -1.01337975 1.21069185 0 0 Z " fill="#35496D" transform="translate(223,322)"/>
</svg>
